<svg id="Layer_1" data-name="Layer 1" xmlns="http://www.w3.org/2000/svg" viewBox="0 0 300 300"><defs><style>.cls-1{fill:#465266;stroke:#465266;stroke-miterlimit:10;stroke-width:3px;}</style></defs><path class="cls-1" d="M89.73,42l2.92,0a16.9,16.9,0,0,1,17.07,16.68l.2,17.52a5,5,0,1,0,10-.12l-.2-17.52A27,27,0,0,0,92.53,32l-2.91,0A27,27,0,0,0,63,59.22l.83,72.8,10-.12-.83-72.79A16.9,16.9,0,0,1,89.73,42Z"/><path class="cls-1" d="M282.35,123.83l-265.62,3a5,5,0,0,0-5,5.08l.2,17.51a93.15,93.15,0,0,0,46.14,78.9l1.57.91L48.86,244.63a5,5,0,0,0,1.2,7,5.19,5.19,0,0,0,7-1.21l11.72-16.62,1.23.49a91.76,91.76,0,0,0,35.6,6.71l90.49-1a91.65,91.65,0,0,0,34.88-7.3l1.21-.51,11.93,16.13a5.15,5.15,0,0,0,7,1,5,5,0,0,0,1.05-7l-10.95-14.81,1.57-1a93,93,0,0,0,44.82-80.23l-.2-17.52A5,5,0,0,0,282.35,123.83Zm-6.13,38.38a83,83,0,0,1-44.58,59.11l0,0-.53.22-.45.24A81.69,81.69,0,0,1,196,229.92l-90.49,1a82.68,82.68,0,0,1-81.76-65.86l-.41-2,253.27-2.9Zm1.37-15.79c0,.44,0,.86,0,1.29l-.07,2.45L22.19,153.08l-.11-2.48c0-.41-.07-.83-.08-1.26l-.14-12.49,255.59-2.92Z"/></svg>