<svg id="Layer_1" data-name="Layer 1" xmlns="http://www.w3.org/2000/svg" viewBox="0 0 300 300"><defs><style>.cls-1{fill:#ff661a;stroke:#ff661a;stroke-miterlimit:10;stroke-width:6px;}</style></defs><path class="cls-1" d="M273,7.42H216.44A5.56,5.56,0,0,0,210.88,13V48.19h-7a5.57,5.57,0,0,0-5.56,5.56v7a5.57,5.57,0,0,0,5.56,5.56h7v37.71a5.56,5.56,0,0,1,5.55,5.53h0V36.07H273V196.32a15.71,15.71,0,0,1-15.7,15.7,23.73,23.73,0,0,0-23.58,26.41L239.26,287H87l11.42-70.46c-1.85-.27-3.67-.58-5.48-1L81.51,286.13A5.55,5.55,0,0,0,87,292.58H239.26a5.56,5.56,0,0,0,4.15-1.85,5.63,5.63,0,0,0,1.38-4.33l-5.52-48.6a18.19,18.19,0,0,1,18.06-20.23,21.28,21.28,0,0,0,21.26-21.25V13A5.57,5.57,0,0,0,273,7.42Zm-69.2,53.37v-7h7v7Zm12.61-30.28V13H273V30.51Z"/><path class="cls-1" d="M112.24,217.57h77.3a26.93,26.93,0,0,0,26.9-26.89V122.46a2.65,2.65,0,0,0-.3-1.19,5.62,5.62,0,0,1-5.26,4v65.44A21.36,21.36,0,0,1,189.54,212h-77.3a89.65,89.65,0,0,1-89.49-86.78H17.2A95.25,95.25,0,0,0,92.94,215.6c1.81.38,3.63.69,5.48,1A95.35,95.35,0,0,0,112.24,217.57Z"/><path class="cls-1" d="M210.86,125.24h0a5.62,5.62,0,0,0,5.26-4,6,6,0,0,0,.3-1.54V109.62s0,0,0,0a5.56,5.56,0,0,0-5.55-5.53h-195a5.57,5.57,0,0,0-5.56,5.56v10.06a5.56,5.56,0,0,0,5.56,5.56h195Zm-195-5.56V109.62h195l-.06,10.06Z"/></svg>