<svg id="Layer_1" data-name="Layer 1" xmlns="http://www.w3.org/2000/svg" viewBox="0 0 300 300"><defs><style>.cls-1{fill:#465266;stroke:#465266;stroke-miterlimit:10;stroke-width:5px;}</style></defs><polygon class="cls-1" points="179.41 62.83 146.63 62.83 146.63 9.16 139.92 9.16 139.92 62.83 82.42 62.83 82.42 9.16 75.71 9.16 75.71 62.83 42.92 62.83 42.92 69.54 179.41 69.54 179.41 62.83"/><path class="cls-1" d="M204.36,250.68H152a37.51,37.51,0,0,1-37.46-37.46V168.28H128a33.92,33.92,0,0,0,33.88-33.88V82.25h-6.71V134.4A27.2,27.2,0,0,1,128,161.57H94.33A27.2,27.2,0,0,1,67.16,134.4V82.25H60.45V134.4a33.92,33.92,0,0,0,33.88,33.88h13.48v44.94A44.22,44.22,0,0,0,152,257.38h52.38a37.5,37.5,0,0,1,37.45,37.46h6.71A44.21,44.21,0,0,0,204.36,250.68Z"/><path class="cls-1" d="M106.77,152.35a3.28,3.28,0,0,0,1.18.22A3.36,3.36,0,0,0,110.8,151l29.71-47.75a3.36,3.36,0,0,0-3.77-5l-22.44,6.39,3.44-20.72a3.35,3.35,0,0,0-6.15-2.33L81.83,129.3a3.35,3.35,0,0,0,3.76,5l22.46-6.39-3.41,20.76A3.35,3.35,0,0,0,106.77,152.35ZM92.12,125.47l16.24-26-1.54,9.33a3.34,3.34,0,0,0,4.22,3.77l19.18-5.46L114,133.17l1.54-9.39a3.33,3.33,0,0,0-1.08-3,3.37,3.37,0,0,0-2.23-.85,3.3,3.3,0,0,0-.92.13Z"/></svg>