<svg id="Layer_1" data-name="Layer 1" xmlns="http://www.w3.org/2000/svg" viewBox="0 0 300 300"><defs><style>.cls-1{fill:#465266;stroke:#465266;stroke-miterlimit:10;stroke-width:2.92px;}</style></defs><path class="cls-1" d="M140.43,109.92h10.72V36.64a18.52,18.52,0,0,1,18.49-18.5h3.2a18.52,18.52,0,0,1,18.49,18.5V55.72a5.36,5.36,0,0,0,10.72,0V36.64A29.25,29.25,0,0,0,172.84,7.42h-3.2a29.25,29.25,0,0,0-29.21,29.22Z"/><path class="cls-1" d="M272.66,108.19a4.66,4.66,0,0,0-4.66-4.74H205.09V92.65h12.36a2.92,2.92,0,1,0,0-5.84H186.27a2.92,2.92,0,0,0,0,5.84h13v10.8H93.61V92.65h13a2.92,2.92,0,0,0,0-5.84H75.41a2.92,2.92,0,1,0,0,5.84H87.77v10.8H24.21a4.68,4.68,0,0,0-4.67,4.74c.92,52.51,40.72,98,96.79,110.56l1.09.24.72.16v70.49a4.68,4.68,0,0,0,4.67,4.67h43.62a4.67,4.67,0,0,0,4.66-4.67V219.8l.75-.14,1.12-.23C229.79,208,271.72,161.21,272.66,108.19ZM161.77,222.29V285h-34.3V220.8l1,.12,1.56.19a134.75,134.75,0,0,0,16,1c4.25,0,8.67-.22,13.12-.64l1.54-.15,1-.1Zm-15.67-9.45c-60.4,0-111.72-42.84-116.83-97.53l-.14-1.53-.1-1H263.17l-.1,1-.14,1.53C257.81,170,206.49,212.84,146.1,212.84Z"/></svg>