<svg id="Layer_1" data-name="Layer 1" xmlns="http://www.w3.org/2000/svg" viewBox="0 0 300 300"><defs><style>.cls-1{fill:#465266;stroke:#465266;stroke-miterlimit:10;stroke-width:3.89px;}</style></defs><path class="cls-1" d="M118.78,295.53h-5.53a5.86,5.86,0,0,1-6-5.5l-1.75-71.4a2.92,2.92,0,0,1,2.94-2.9,3,3,0,0,1,3.07,2.76l1.74,71.37h5.53l1.75-71.37a3,3,0,0,1,6,.14L124.79,290A5.87,5.87,0,0,1,118.78,295.53Z"/><path class="cls-1" d="M193.17,295.53h-5.53a5.87,5.87,0,0,1-6-5.5l-1.74-71.4a3,3,0,0,1,6-.14l1.75,71.37h5.53l1.74-71.37a2.94,2.94,0,0,1,3.07-2.76,2.9,2.9,0,0,1,2.93,2.9L199.17,290A5.87,5.87,0,0,1,193.17,295.53Z"/><path class="cls-1" d="M223.39,134.5H83a7.2,7.2,0,0,1-7.39-7V12.13a7.2,7.2,0,0,1,7.39-7H223.39a7.2,7.2,0,0,1,7.39,7V127.59A7.19,7.19,0,0,1,223.39,134.5ZM83,10.83a1.35,1.35,0,0,0-1.38,1.3v115.4a1.35,1.35,0,0,0,1.38,1.3H223.39a1.36,1.36,0,0,0,1.38-1.31V12.13a1.35,1.35,0,0,0-1.38-1.3Z"/><path class="cls-1" d="M210.53,220.83H95.89a5.85,5.85,0,0,1-6-5.67V200.65a5.85,5.85,0,0,1,6-5.67H210.53a5.86,5.86,0,0,1,6,5.67v14.51A5.85,5.85,0,0,1,210.53,220.83ZM95.89,200.65v14.51H210.53V200.65Z"/><path class="cls-1" d="M254.45,181.38H52a5.85,5.85,0,0,1-6-5.67V134.5a5.85,5.85,0,0,1,6-5.67H254.45a5.85,5.85,0,0,1,6,5.67v41.21A5.85,5.85,0,0,1,254.45,181.38Zm0-5.67v0ZM52,134.5v41.21H254.44V134.5Z"/><path class="cls-1" d="M153.21,181.38a2.92,2.92,0,0,1-3-2.84V131.67a3,3,0,0,1,6,0v46.87A2.92,2.92,0,0,1,153.21,181.38Z"/><path class="cls-1" d="M100.21,163.13a8,8,0,1,1,8.48-8A8.26,8.26,0,0,1,100.21,163.13Zm0-10.32a2.33,2.33,0,1,0,2.47,2.32A2.4,2.4,0,0,0,100.21,152.81Z"/><path class="cls-1" d="M205.6,163.13a8,8,0,1,1,8.47-8A8.26,8.26,0,0,1,205.6,163.13Zm0-10.32a2.33,2.33,0,1,0,2.47,2.32A2.39,2.39,0,0,0,205.6,152.81Z"/><path class="cls-1" d="M74,295.31H68.43a5.87,5.87,0,0,1-6-5.51L60.68,178.58a2.92,2.92,0,0,1,3-2.87,3.05,3.05,0,0,1,3,2.79l1.74,111.15H74L75.7,178.5a2.93,2.93,0,0,1,3-2.79h0a2.92,2.92,0,0,1,3,2.87L80,289.74A5.89,5.89,0,0,1,74,295.31Z"/><path class="cls-1" d="M238,295.31h-5.53a5.87,5.87,0,0,1-6-5.51l-1.74-111.22a2.91,2.91,0,0,1,3-2.87,3,3,0,0,1,3.05,2.79l1.74,111.15H238l1.74-111.14a2.92,2.92,0,0,1,3-2.79h.05a2.92,2.92,0,0,1,3,2.87L244,289.74A5.88,5.88,0,0,1,238,295.31Z"/></svg>