<svg id="Layer_1" data-name="Layer 1" xmlns="http://www.w3.org/2000/svg" viewBox="0 0 300 300"><defs><style>.cls-1,.cls-3{fill:#465266;}.cls-2{fill:none;}.cls-3{stroke:#465266;}.cls-3,.cls-4{stroke-miterlimit:10;stroke-width:4px;}.cls-4{fill:#ff661a;stroke:#ff661a;}</style></defs><path class="cls-1" d="M134.05,190.22a16.28,16.28,0,0,0,32.56,0,4.39,4.39,0,0,0-4.38-4.41H138.44A4.41,4.41,0,0,0,134.05,190.22Zm8.17,2.49h16.2a.73.73,0,0,1,.57,1.18c-2,2.54-4.63,5.68-8.66,5.68-4.5,0-6.75-3.14-8.69-5.69A.73.73,0,0,1,142.22,192.71Z"/><path class="cls-2" d="M124.48,156.52a30.25,30.25,0,0,1-19.75-7.33V170a45.61,45.61,0,0,0,91.21,0V148.84a30.26,30.26,0,0,1-20.13,7.68Zm2.14,19.31a4.78,4.78,0,1,1,4.79-4.78A4.78,4.78,0,0,1,126.62,175.83Zm37.88,14.63a14.17,14.17,0,1,1-28.34,0v-2.81H164.5Zm14.33-19.41a4.79,4.79,0,1,1-4.79-4.78A4.78,4.78,0,0,1,178.83,171.05Z"/><path class="cls-2" d="M146.46,251.73,121.4,228.34a61,61,0,0,0-32.14,49.49A139,139,0,0,0,105,284.22v-14.8h5.63V286a141.76,141.76,0,0,0,18.51,4.09q2.92.44,5.89.75c3.77.4,7.6.61,11.45.71Z"/><path class="cls-2" d="M179.21,228.65l-27.12,23.83v39H147c1,0,2,.08,3,.08,4.58,0,9.1-.24,13.56-.66,2-.19,3.94-.44,5.89-.71a139,139,0,0,0,19-4V269.42h5.63v15.09a143.69,143.69,0,0,0,16.66-6.69A61,61,0,0,0,179.21,228.65Z"/><path class="cls-2" d="M149.72,247.07l24-21.09a60.83,60.83,0,0,0-46.84-.22Z"/><path class="cls-2" d="M124.48,133.12h51.33c13.66,0,24.78-8.44,24.78-18.81v-2.19A50.75,50.75,0,0,0,185.51,76a50.24,50.24,0,0,0-21.6-12.8V81.4h-5.63V61.94a50,50,0,0,0-8.14-.72h-.09a49.56,49.56,0,0,0-8,.72V81.4h-5.63V63.18A50.52,50.52,0,0,0,99.7,111.66v2.65C99.7,124.68,110.82,133.12,124.48,133.12Zm10.28-29.46h12.43V91.23a2.81,2.81,0,0,1,5.62,0v12.43h12.43a2.81,2.81,0,0,1,0,5.62H152.81v12.43a2.81,2.81,0,0,1-5.62,0V109.28H134.76a2.81,2.81,0,0,1,0-5.62Z"/><path class="cls-2" d="M150,8.39C71.92,8.39,8.39,71.92,8.39,150A141.46,141.46,0,0,0,66.23,264.08c1.92,1.42,3.89,2.79,5.89,4.11,3.76,2.49,7.67,4.77,11.67,6.9a66.71,66.71,0,0,1,48.79-57.15A51.27,51.27,0,0,1,99.1,170v-27.1h0a30.19,30.19,0,0,1-5-16.73V111.66a56.15,56.15,0,0,1,56-56.07h.1A55.41,55.41,0,0,1,189.49,72a56.34,56.34,0,0,1,16.72,40.1v14a30.19,30.19,0,0,1-5,16.73h.39V170A51.26,51.26,0,0,1,167.81,218a66.71,66.71,0,0,1,48.39,57c3.49-1.86,6.92-3.81,10.23-5.94,2-1.3,4-2.64,5.94-4A141.49,141.49,0,0,0,291.61,150C291.61,71.92,228.08,8.39,150,8.39Z"/><path class="cls-2" d="M124.48,150.89h51.33a24.81,24.81,0,0,0,24.65-22.34c-5.52,6.16-14.5,10.19-24.65,10.19H124.48c-10.15,0-19.13-4-24.65-10.19A24.8,24.8,0,0,0,124.48,150.89Z"/><path class="cls-3" d="M104.73,149.19a30.25,30.25,0,0,0,19.75,7.33h51.33a30.26,30.26,0,0,0,20.13-7.68v-6h5.23a30.19,30.19,0,0,0,5-16.73v-14A56.34,56.34,0,0,0,189.49,72a55.41,55.41,0,0,0-39.35-16.43H150a56.15,56.15,0,0,0-56,56.07v14.46a30.19,30.19,0,0,0,5,16.73h5.61Zm-5-37.53a50.52,50.52,0,0,1,36.68-48.48V81.4H142V61.94a49.56,49.56,0,0,1,8-.72h.09a50,50,0,0,1,8.14.72V81.4h5.63V63.2A50.24,50.24,0,0,1,185.51,76a50.75,50.75,0,0,1,15.08,36.12v2.19c0,10.37-11.12,18.81-24.78,18.81H124.48c-13.66,0-24.78-8.44-24.78-18.81Zm.13,16.89c5.52,6.16,14.5,10.19,24.65,10.19h51.33c10.15,0,19.13-4,24.65-10.19a24.81,24.81,0,0,1-24.65,22.34H124.48A24.8,24.8,0,0,1,99.83,128.55Z"/><path class="cls-3" d="M201.56,170v-27.1h-5.62V170a45.61,45.61,0,0,1-91.21,0v-27.1H99.1V170a51.27,51.27,0,0,0,33.48,48,64.81,64.81,0,0,1,35.23.1A51.26,51.26,0,0,0,201.56,170Z"/><path class="cls-3" d="M126.62,166.27a4.78,4.78,0,1,0,4.79,4.78A4.78,4.78,0,0,0,126.62,166.27Z"/><circle class="cls-3" cx="174.04" cy="171.05" r="4.78"/><path class="cls-4" d="M134.76,109.28h12.43v12.43a2.81,2.81,0,0,0,5.62,0V109.28h12.43a2.81,2.81,0,0,0,0-5.62H152.81V91.23a2.81,2.81,0,0,0-5.62,0v12.43H134.76a2.81,2.81,0,0,0,0,5.62Z"/><path class="cls-3" d="M150,2.84C68.85,2.84,2.84,68.85,2.84,150A147.29,147.29,0,0,0,83.46,281.2q2.76,1.4,5.58,2.69A146.16,146.16,0,0,0,105,290.1c1.51.48,3,.92,4.55,1.36a146.52,146.52,0,0,0,80.94,0c1.2-.34,2.42-.67,3.61-1A145,145,0,0,0,211,283.89q2.82-1.29,5.58-2.69A147.29,147.29,0,0,0,297.16,150C297.16,68.85,231.15,2.84,150,2.84ZM129.12,290.06A141.76,141.76,0,0,1,110.61,286V269.42H105v14.8a139,139,0,0,1-15.72-6.39,61,61,0,0,1,32.14-49.49l25.06,23.39v39.79c-3.85-.1-7.68-.31-11.45-.71Q132,290.5,129.12,290.06ZM173.72,226l-24,21.09-22.84-21.31a60.83,60.83,0,0,1,46.84.22Zm20.36,58.53V269.42h-5.63v16.79a139,139,0,0,1-19,4c-1.95.27-3.91.52-5.89.71-4.46.42-9,.66-13.56.66-1,0-2-.06-3-.08h5.1v-39l27.12-23.83a61,61,0,0,1,31.53,49.17A143.69,143.69,0,0,1,194.08,284.51Zm38.29-19.43c-2,1.4-3.92,2.74-5.94,4-3.31,2.13-6.74,4.08-10.23,5.94a66.59,66.59,0,0,0-132.41,0c-4-2.13-7.91-4.41-11.67-6.9-2-1.32-4-2.69-5.89-4.11A141.46,141.46,0,0,1,8.39,150C8.39,71.92,71.92,8.39,150,8.39S291.61,71.92,291.61,150A141.49,141.49,0,0,1,232.37,265.08Z"/></svg>