<svg id="Layer_1" data-name="Layer 1" xmlns="http://www.w3.org/2000/svg" viewBox="0 0 300 300"><defs><style>.cls-1{fill:#ff661a;}</style>
</defs><title>icon_camera</title><rect class="cls-1" x="239.56" y="116.26" width="12.83" height="7.23" />
<path class="cls-1" d="M150,108.68a59,59,0,1,0,59,59A59.07,59.07,0,0,0,150,108.68Zm0,110.79a51.78,51.78,0,1,1,51.78-51.78A51.84,51.84,0,0,1,150,219.47Z"/>
<path class="cls-1" d="M259.21,75.43H212.14V61a26.62,26.62,0,0,0-26.59-26.59h-71.1A26.62,26.62,0,0,0,87.86,61v14.4H40.79a38.08,38.08,0,0,0-38,38V227.52a38.08,38.08,0,0,0,38,38H259.21a38.08,38.08,0,0,0,38-38v-114A38.08,38.08,0,0,0,259.21,75.43ZM290,227.52a30.84,30.84,0,0,1-30.81,30.81H40.79A30.84,30.84,0,0,1,10,227.52v-114A30.84,30.84,0,0,1,40.79,82.66h54.3V61a19.38,19.38,0,0,1,19.36-19.36h71.1A19.38,19.38,0,0,1,204.91,61V82.66h54.3A30.84,30.84,0,0,1,290,113.47Z"/></svg>