<svg id="Layer_1" data-name="Layer 1" xmlns="http://www.w3.org/2000/svg" viewBox="0 0 300 300"><title>Untitled-1</title><path d="M170.24,178.77V93.55a11.9,11.9,0,0,1,2.88-7.77l-118.87-28a5.73,5.73,0,0,0-5,1,5.66,5.66,0,0,0-2.21,4.51v66.93a5.71,5.71,0,0,0,3.49,5.27l119.79,44.92A11.52,11.52,0,0,1,170.24,178.77Z" fill="none"/><path d="M182.55,81.6h49.72l-134-24a5.69,5.69,0,0,0-1.07-.1H80.33Z" fill="none"/><circle cx="224.8" cy="136.16" r="20.13" transform="translate(-12.32 22.81) rotate(-5.65)" fill="none"/><path d="M267.42,87.83H182.19a5.72,5.72,0,0,0-5.71,5.72v85.22a5.72,5.72,0,0,0,5.71,5.72h85.23a5.72,5.72,0,0,0,5.71-5.72V93.55A5.73,5.73,0,0,0,267.42,87.83Zm-42.62,74.7a26.37,26.37,0,1,1,26.37-26.37A26.39,26.39,0,0,1,224.8,162.53Z" fill="none"/><path d="M224.8,109.79a26.37,26.37,0,1,0,26.37,26.37A26.39,26.39,0,0,0,224.8,109.79Zm0,46.5a20.13,20.13,0,1,1,20.14-20.13A20.15,20.15,0,0,1,224.8,156.29Z" fill="#ff661a"/><path d="M267.74,81.6,99.39,51.49a12.59,12.59,0,0,0-2.2-.2H52.8a3.42,3.42,0,0,0-.79.1A12,12,0,0,0,40.84,63.32v66.93a11.92,11.92,0,0,0,7.39,11.05l.1,0,51.92,19.47a2.6,2.6,0,0,0,0,.4v54.5a5.73,5.73,0,0,1-5.72,5.72H26.87V203.5a3.12,3.12,0,0,0-6.24,0v42.09a3.12,3.12,0,0,0,6.24,0V227.66H94.5a12,12,0,0,0,12-11.95V163.13l71.29,26.73h0a11.88,11.88,0,0,0,4.43.85h85.23a12,12,0,0,0,11.95-11.95V93.55A12,12,0,0,0,267.74,81.6Zm-169.48-24,134,24H182.55L80.33,57.53H97.19A5.69,5.69,0,0,1,98.26,57.63ZM47.08,130.25V63.32a5.66,5.66,0,0,1,2.21-4.51,5.73,5.73,0,0,1,5-1l118.87,28a11.9,11.9,0,0,0-2.88,7.77v85.22a11.52,11.52,0,0,0,.12,1.67L50.57,135.52A5.71,5.71,0,0,1,47.08,130.25Zm226.05,48.52a5.72,5.72,0,0,1-5.71,5.72H182.19a5.72,5.72,0,0,1-5.71-5.72V93.55a5.72,5.72,0,0,1,5.71-5.72h85.23a5.73,5.73,0,0,1,5.71,5.72Z" fill="currentColor"/></svg>