<svg id="Layer_1" data-name="Layer 1" xmlns="http://www.w3.org/2000/svg" viewBox="0 0 300 300"><defs><style>.cls-1{fill:none;}.cls-2{fill:#465266;}.cls-3{fill:#ff661a;}</style></defs><path class="cls-1" d="M74.84,157.17h23.7l11.33,48.37a2.2,2.2,0,0,0,2.14,1.63h15.47a2.21,2.21,0,0,0,2.15-1.62l11.71-48.38H158l11.75,48.4a2.19,2.19,0,0,0,2.14,1.6h15.47a2.2,2.2,0,0,0,2.15-1.62l11.65-48.38h24a2.12,2.12,0,0,0,2.19-2V144.7a2.12,2.12,0,0,0-2.19-2H204.71l2.53-10.48h17.92a2.12,2.12,0,0,0,2.19-2V119.7a2.12,2.12,0,0,0-2.19-2H210.72l5.39-22.32a1.93,1.93,0,0,0-.38-1.66,2.23,2.23,0,0,0-1.76-.84H201.41a2.14,2.14,0,0,0-2.13,1.65l-4.07,23.17H163.53L158,94.42a2.16,2.16,0,0,0-2.14-1.59h-12a2.18,2.18,0,0,0-2.15,1.61l-5.64,23.21H104.74L99.8,94.49a2.18,2.18,0,0,0-2.17-1.66H86.17a2.23,2.23,0,0,0-1.77.84A1.91,1.91,0,0,0,84,95.31l5.24,22.34H74.84a2.12,2.12,0,0,0-2.19,2v10.42a2.12,2.12,0,0,0,2.19,2H92.66l2.46,10.48H74.84a2.12,2.12,0,0,0-2.19,2v10.42A2.12,2.12,0,0,0,74.84,157.17ZM187,158.68l-3.13,14.06a109.07,109.07,0,0,0-1.81,12,2,2,0,0,1-2,1.83h-.3c-1.86,0-2-1.69-2.16-3.05a73.12,73.12,0,0,0-1.77-10.75v0l-3.37-14.06a2,2,0,0,1,1.94-2.47H185a2,2,0,0,1,1.95,2.44ZM166.84,132a2,2,0,0,1,1.57-.76h22.22a2,2,0,0,1,2,2.44L190.7,142a2,2,0,0,1-1.95,1.56H170.4a2,2,0,0,1-2-1.54l-2-8.33A2,2,0,0,1,166.84,132Zm-22.54,9.1.54-2.24c.47-1.89.9-3.9,1.29-6a2,2,0,0,1,2-1.64h3.22a2,2,0,0,1,2,1.64c.39,2.08.82,4.09,1.29,6l.54,2.25a2,2,0,0,1-.37,1.71,2,2,0,0,1-1.57.77h-6.92a2,2,0,0,1-1.57-.77A2,2,0,0,1,144.3,141.1ZM127,158.72l-3.43,14.06a71.4,71.4,0,0,0-1.8,10.91c-.11,1.15-.28,2.9-2.13,2.9h-.3a2,2,0,0,1-2-1.83,107,107,0,0,0-1.81-12l-3-14.06a2,2,0,0,1,2-2.42h10.57a2,2,0,0,1,1.57.77A2,2,0,0,1,127,158.72ZM107.6,132a2,2,0,0,1,1.55-.74h22a2,2,0,0,1,1.94,2.48l-2,8.33a2,2,0,0,1-1.95,1.53H110.92a2,2,0,0,1-2-1.59l-1.77-8.33A2,2,0,0,1,107.6,132Z"/><path class="cls-2" d="M238,119.7A12.76,12.76,0,0,0,225.16,107h-.94l2.22-9.21a12.54,12.54,0,0,0-2.38-10.74A12.75,12.75,0,0,0,214,82.21H201.41a12.81,12.81,0,0,0-12.54,10.13L186.29,107H171.91L168.3,91.94a12.81,12.81,0,0,0-12.47-9.73h-12a12.77,12.77,0,0,0-12.46,9.69L127.71,107H113.34l-3.15-14.75A12.78,12.78,0,0,0,97.63,82.21H86.17a12.78,12.78,0,0,0-10.1,4.86,12.51,12.51,0,0,0-2.38,10.69L75.86,107h-1A12.76,12.76,0,0,0,62,119.7v10.42a12.61,12.61,0,0,0,2.34,7.29A12.63,12.63,0,0,0,62,144.7v10.42a12.76,12.76,0,0,0,12.82,12.67H90.12L99.52,208A12.68,12.68,0,0,0,112,217.79h15.47a12.79,12.79,0,0,0,12.45-9.66l9.76-40.3,9.77,40.26a12.83,12.83,0,0,0,12.46,9.7h15.47a12.79,12.79,0,0,0,12.45-9.66l9.72-40.34h15.6A12.76,12.76,0,0,0,238,155.12V144.7a12.61,12.61,0,0,0-2.34-7.29,12.63,12.63,0,0,0,2.34-7.29Zm-165.33,25a2.12,2.12,0,0,1,2.19-2H95.12l-2.46-10.48H74.84a2.12,2.12,0,0,1-2.19-2V119.7a2.12,2.12,0,0,1,2.19-2H89.27L84,95.31a1.91,1.91,0,0,1,.37-1.64,2.23,2.23,0,0,1,1.77-.84H97.63a2.18,2.18,0,0,1,2.17,1.66l4.94,23.16h31.32l5.64-23.21a2.18,2.18,0,0,1,2.15-1.61h12A2.16,2.16,0,0,1,158,94.42l5.56,23.23h31.68l4.07-23.17a2.14,2.14,0,0,1,2.13-1.65H214a2.23,2.23,0,0,1,1.76.84,1.93,1.93,0,0,1,.38,1.66l-5.39,22.32h14.44a2.12,2.12,0,0,1,2.19,2v10.42a2.12,2.12,0,0,1-2.19,2H207.24l-2.53,10.48h20.45a2.12,2.12,0,0,1,2.19,2v10.42a2.12,2.12,0,0,1-2.19,2h-24l-11.65,48.38a2.2,2.2,0,0,1-2.15,1.62H171.92a2.19,2.19,0,0,1-2.14-1.6L158,157.17H141.34l-11.71,48.38a2.21,2.21,0,0,1-2.15,1.62H112a2.2,2.2,0,0,1-2.14-1.63L98.54,157.17H74.84a2.12,2.12,0,0,1-2.19-2Z"/><path class="cls-3" d="M109,142a2,2,0,0,0,2,1.59h18.19a2,2,0,0,0,1.95-1.53l2-8.33a2,2,0,0,0-1.94-2.48h-22a2,2,0,0,0-1.55.74,2,2,0,0,0-.4,1.68Z"/><path class="cls-3" d="M146.24,143.58h6.92a2,2,0,0,0,1.57-.77,2,2,0,0,0,.37-1.71l-.54-2.25c-.47-1.88-.9-3.89-1.29-6a2,2,0,0,0-2-1.64h-3.22a2,2,0,0,0-2,1.64c-.39,2.08-.82,4.09-1.29,6l-.54,2.24a2,2,0,0,0,.37,1.71A2,2,0,0,0,146.24,143.58Z"/><path class="cls-3" d="M125.06,156.24H114.49a2,2,0,0,0-2,2.42l3,14.06a107,107,0,0,1,1.81,12,2,2,0,0,0,2,1.83h.3c1.85,0,2-1.75,2.13-2.9a71.4,71.4,0,0,1,1.8-10.91L127,158.72a2,2,0,0,0-.37-1.71A2,2,0,0,0,125.06,156.24Z"/><path class="cls-3" d="M185,156.24H174.37a2,2,0,0,0-1.94,2.47l3.37,14.06v0a73.12,73.12,0,0,1,1.77,10.75c.13,1.36.3,3.05,2.16,3.05h.3a2,2,0,0,0,2-1.83,109.07,109.07,0,0,1,1.81-12L187,158.68a2,2,0,0,0-1.95-2.44Z"/><path class="cls-3" d="M168.45,142a2,2,0,0,0,2,1.54h18.35A2,2,0,0,0,190.7,142l1.88-8.34a2,2,0,0,0-2-2.44H168.41a2,2,0,0,0-1.95,2.47Z"/><path class="cls-2" d="M150,10.9a139.1,139.1,0,0,1,98.36,237.46A139.1,139.1,0,0,1,51.64,51.64,138.22,138.22,0,0,1,150,10.9M150,.75A149.25,149.25,0,1,0,299.25,150,149.25,149.25,0,0,0,150,.75Z"/></svg>