<svg id="Layer_1" data-name="Layer 1" xmlns="http://www.w3.org/2000/svg" viewBox="0 0 300 300"><defs><style>.cls-1{fill:none;}.cls-2{fill:#ff661a;}.cls-3{fill:#465266;}</style></defs><path class="cls-1" d="M176.16,185.37a5.42,5.42,0,0,0-5.41-5.41h-41.5a5.42,5.42,0,0,0-5.41,5.41v44.37h52.32Zm-30.44,22.11H132.55V202h13.17Z"/><path class="cls-1" d="M225.41,151.05h7.4L152.76,71.4a3.91,3.91,0,0,0-5.52,0L67.19,151.05h7.39a9.62,9.62,0,0,1,9.62,9.61v65.16a3.93,3.93,0,0,0,3.92,3.92h30V185.37a11.13,11.13,0,0,1,11.12-11.12h41.5a11.13,11.13,0,0,1,11.11,11.12v44.37h30a3.93,3.93,0,0,0,3.92-3.92V160.66A9.62,9.62,0,0,1,225.41,151.05Z"/><path class="cls-1" d="M211.88,227.74a1.92,1.92,0,0,0,1.92-1.92V160.66a11.63,11.63,0,0,1,11.61-11.61H228L151.35,72.81a1.92,1.92,0,0,0-2.7,0L72,149.05h2.54A11.63,11.63,0,0,1,86.2,160.66v65.16a1.92,1.92,0,0,0,1.92,1.92h28V185.37a13.14,13.14,0,0,1,13.12-13.12h41.5a13.13,13.13,0,0,1,13.11,13.12v42.37Z"/><polygon class="cls-1" points="191.39 76.53 191.39 98.97 203.13 110.65 203.13 76.53 191.39 76.53"/><path class="cls-1" d="M174.16,185.37a3.41,3.41,0,0,0-3.41-3.41h-41.5a3.41,3.41,0,0,0-3.41,3.41v42.37h48.32Zm-26.44,24.11H130.55V200h17.17Z"/><path class="cls-2" d="M191.39,99V76.53h11.74v34.12l9.52,9.48a4.07,4.07,0,0,0,.06-.61V73.36a6.43,6.43,0,0,0-6.42-6.42H188.22a6.43,6.43,0,0,0-6.42,6.42V89.43Z"/><rect class="cls-3" x="130.55" y="200.02" width="17.17" height="9.47"/><path class="cls-3" d="M244.06,151.38l-31.41-31.25-9.52-9.48L191.39,99l-9.59-9.54L158.19,65.94a11.64,11.64,0,0,0-16.39,0L55.94,151.38a4.32,4.32,0,0,0,3,7.37H74.59a1.92,1.92,0,0,1,1.91,1.91v65.16a11.63,11.63,0,0,0,11.62,11.62H211.88a11.63,11.63,0,0,0,11.62-11.62V160.66a1.92,1.92,0,0,1,1.91-1.91H241a4.32,4.32,0,0,0,3.05-7.37Zm-73.31,20.87h-41.5a13.14,13.14,0,0,0-13.12,13.12v42.37h-28a1.92,1.92,0,0,1-1.92-1.92V160.66a11.63,11.63,0,0,0-11.62-11.61H72l76.61-76.24a1.92,1.92,0,0,1,2.7,0L228,149.05h-2.55a11.63,11.63,0,0,0-11.61,11.61v65.16a1.92,1.92,0,0,1-1.92,1.92h-28V185.37A13.13,13.13,0,0,0,170.75,172.25Zm-44.91,13.12a3.41,3.41,0,0,1,3.41-3.41h41.5a3.41,3.41,0,0,1,3.41,3.41v42.37H125.84Z"/><path class="cls-3" d="M150,10.9a139.1,139.1,0,0,1,98.36,237.46A139.1,139.1,0,0,1,51.64,51.64,138.22,138.22,0,0,1,150,10.9M150,.75A149.25,149.25,0,1,0,299.25,150,149.25,149.25,0,0,0,150,.75Z"/></svg>