<svg id="Layer_1" data-name="Layer 1" xmlns="http://www.w3.org/2000/svg" viewBox="0 0 300 300"><title>Untitled-1</title><path d="M187.9,284.78a3.74,3.74,0,0,0,3.74,3.74h55.43v-3.37L187.9,230.53Z" fill="#465266" opacity="0.8"/><path d="M56.68,288.52h51.16a3.75,3.75,0,0,0,3.75-3.74V206.69a3.73,3.73,0,0,1,3.74-3.74H158L52.93,106V284.78A3.75,3.75,0,0,0,56.68,288.52Z" fill="#465266" opacity="0.8"/><path d="M207.26,135.55H92.74A3.75,3.75,0,0,1,89,131.8V106a3.73,3.73,0,0,0-3.74-3.74H52.93V106l104,96a3.76,3.76,0,0,0,2.54,1h24.67a3.74,3.74,0,0,1,3.75,3.74v23.84l59.17,54.62V106a3.74,3.74,0,0,0-3.75-3.74H214.75A3.73,3.73,0,0,0,211,106V131.8A3.75,3.75,0,0,1,207.26,135.55Z" fill="#465266"/><path d="M238,76.28l-85.8-64.06a3.75,3.75,0,0,0-4.48,0L62,76.28A3.75,3.75,0,0,0,64.2,83H235.8A3.75,3.75,0,0,0,238,76.28Z" fill="#ff661a"/></svg>