<svg id="Layer_1" data-name="Layer 1" xmlns="http://www.w3.org/2000/svg" viewBox="0 0 135.37 136.43"><defs><style>.cls-1{fill:#465266;}</style></defs><path class="cls-1" d="M68.5,77.22A25.28,25.28,0,1,0,43.22,51.94,25.32,25.32,0,0,0,68.5,77.22ZM89,51.94A20.46,20.46,0,1,1,68.5,31.49,20.48,20.48,0,0,1,89,51.94Z"/><path class="cls-1" d="M81,82.79a8.94,8.94,0,0,0-2.6.4,29.63,29.63,0,0,1-19.8,0A8.73,8.73,0,0,0,56,82.79,31.4,31.4,0,0,0,28.3,99.61l-.77,1.44,1.06,1.25a52.16,52.16,0,0,0,79.83,0l1-1.25-.76-1.44A31.4,31.4,0,0,0,81,82.79ZM68.5,116.05a47.38,47.38,0,0,1-35.12-15.61A26.55,26.55,0,0,1,56,87.62a3.82,3.82,0,0,1,1.1.17,34.79,34.79,0,0,0,22.71,0A3.87,3.87,0,0,1,81,87.62a26.52,26.52,0,0,1,22.64,12.82A47.36,47.36,0,0,1,68.5,116.05Z"/><path class="cls-1" d="M68.5,1.71a66.86,66.86,0,1,0,66.87,66.86A66.93,66.93,0,0,0,68.5,1.71Zm0,128.89a62,62,0,1,1,62-62A62.1,62.1,0,0,1,68.5,130.6Z"/></svg>