<svg id="Layer_1" data-name="Layer 1" xmlns="http://www.w3.org/2000/svg" viewBox="0 0 300 300"><defs><style>.cls-1{fill:#465266;}.cls-2{fill:#fff;}</style></defs><path class="cls-1" d="M249.94,157.4h0A108.59,108.59,0,0,0,260,102.84C256.13,49.09,212.17,5.66,158.37,2.39a108.77,108.77,0,0,0-93.8,173.83L132,287.93a22.89,22.89,0,0,0,39.2,0L238.6,176.19a108.5,108.5,0,0,0,11.31-18.75Z"/><path class="cls-2" d="M153.55,37.35a72.92,72.92,0,1,0,72.91,72.91A72.9,72.9,0,0,0,153.55,37.35Zm0,28.23a25.87,25.87,0,1,1-25.87,25.87A25.87,25.87,0,0,1,153.55,65.58Zm0,101.13a56.34,56.34,0,0,1-43.07-20.05,32.78,32.78,0,0,1,29-17.58,7.46,7.46,0,0,1,2.09.32,36.63,36.63,0,0,0,24.05,0,7.34,7.34,0,0,1,2.08-.32,32.76,32.76,0,0,1,29,17.58A56.34,56.34,0,0,1,153.55,166.71Z"/></svg>