<svg id="Layer_1" data-name="Layer 1" xmlns="http://www.w3.org/2000/svg" viewBox="0 0 300 300"><title>Untitled-1</title><rect x="36.36" y="220.99" width="7.56" height="33.47" fill="none"/><rect x="17.2" y="170.41" width="265.61" height="45.19" fill="none"/><path d="M33.39,45.54v91.31H59.57V115.72a18.92,18.92,0,0,1,18.9-18.9H114.1A18.91,18.91,0,0,1,133,115.72v21.13h34V115.72a18.91,18.91,0,0,1,18.89-18.9h35.63a18.92,18.92,0,0,1,18.9,18.9v21.13h26.18V45.54Z" fill="none"/><rect x="256.08" y="220.99" width="7.56" height="33.47" fill="none"/><path d="M127.6,115.72a13.52,13.52,0,0,0-13.5-13.5H78.47A13.52,13.52,0,0,0,65,115.72v21.13H127.6Z" fill="none"/><path d="M269.31,142.25H30.69a13.51,13.51,0,0,0-13.49,13.5V165H282.8v-9.26A13.51,13.51,0,0,0,269.31,142.25Z" fill="none"/><path d="M235,115.72a13.52,13.52,0,0,0-13.5-13.5H185.9a13.52,13.52,0,0,0-13.5,13.5v21.13H235Z" fill="none"/><path d="M285.5,170.41h-2.7v45.18H17.2V170.41H14.5a2.7,2.7,0,0,1-2.7-2.7v47.88a5.4,5.4,0,0,0,5.4,5.4H31v33.47a5.4,5.4,0,0,0,5.4,5.4h7.56a5.4,5.4,0,0,0,5.4-5.4V221H250.68v33.47a5.41,5.41,0,0,0,5.4,5.4h7.56a5.4,5.4,0,0,0,5.4-5.4V221H282.8a5.4,5.4,0,0,0,5.4-5.4V167.71A2.7,2.7,0,0,1,285.5,170.41ZM43.92,254.46H36.36V221h7.56Zm219.72,0h-7.56V221h7.56Z" fill="#465266"/><path d="M33.39,136.85V45.54H266.61v91.31h2.7a18.55,18.55,0,0,1,2.7.22V45.54a5.4,5.4,0,0,0-5.4-5.4H33.39a5.4,5.4,0,0,0-5.4,5.4v91.53a18.55,18.55,0,0,1,2.7-.22Z" fill="#465266"/><path d="M272,137.07a18.55,18.55,0,0,0-2.7-.22H240.43V115.72a18.92,18.92,0,0,0-18.9-18.9H185.9A18.91,18.91,0,0,0,167,115.72v21.13H133V115.72a18.91,18.91,0,0,0-18.89-18.9H78.47a18.92,18.92,0,0,0-18.9,18.9v21.13H30.69a18.55,18.55,0,0,0-2.7.22A18.91,18.91,0,0,0,11.8,155.75v12a2.7,2.7,0,0,0,2.7,2.7h271a2.7,2.7,0,0,0,2.7-2.7v-12A18.91,18.91,0,0,0,272,137.07ZM172.4,115.72a13.52,13.52,0,0,1,13.5-13.5h35.63a13.52,13.52,0,0,1,13.5,13.5v21.13H172.4ZM65,115.72a13.52,13.52,0,0,1,13.5-13.5H114.1a13.52,13.52,0,0,1,13.5,13.5v21.13H65ZM17.2,165v-9.26a13.51,13.51,0,0,1,13.49-13.5H269.31a13.51,13.51,0,0,1,13.49,13.5V165Z" fill="#ff661a"/></svg>