<svg id="Layer_1" data-name="Layer 1" xmlns="http://www.w3.org/2000/svg" viewBox="0 0 300 300"><title>B-Platform (9)</title><path d="M235.49,288.18a6.56,6.56,0,0,1-3.49-1l-82-50.85L68,287.18A6.63,6.63,0,0,1,58.07,280l23-93.7L7.4,124a6.62,6.62,0,0,1,3.79-11.67l96.23-7,36.44-89.34a6.64,6.64,0,0,1,12.28,0h0l36.44,89.34,96.23,7A6.62,6.62,0,0,1,292.6,124l-73.7,62.27,23,93.7a6.64,6.64,0,0,1-6.44,8.21ZM14.65,119.91,86.7,180.78a6.61,6.61,0,0,1,2.16,6.64L66.35,279l80.16-49.72a6.56,6.56,0,0,1,7,0L233.65,279l-22.51-91.61a6.61,6.61,0,0,1,2.16-6.64l72.05-60.87L191.28,113a6.59,6.59,0,0,1-5.65-4.11L150,21.56,114.37,108.9a6.59,6.59,0,0,1-5.65,4.11Zm178.21-14Zm-44-87.06Z" fill="currentColor"/></svg>