<svg id="Layer_1" data-name="Layer 1" xmlns="http://www.w3.org/2000/svg" viewBox="0 0 300 300"><defs><style>.cls-1{fill:#ff661a;}.cls-2{fill:none;stroke:#fff;stroke-miterlimit:10;stroke-width:8px;}</style></defs><path class="cls-1" d="M242.29,165.59h0a101.27,101.27,0,0,0,9.44-50.94c-3.65-50.19-44.7-90.74-94.93-93.79A101.56,101.56,0,0,0,69.21,183.17l62.93,104.31a21.39,21.39,0,0,0,36.61,0L231.7,183.14a101.75,101.75,0,0,0,10.57-17.51Z"/><path class="cls-2" d="M216.64,90.17l-14.3-22.83a7.05,7.05,0,0,0-6-3.3h-89a7.05,7.05,0,0,0-6,3.3L87.05,90.17c-7.38,11.8-.83,28.19,13,30.07a23.32,23.32,0,0,0,3,.19,21.76,21.76,0,0,0,16.27-7.29,21.79,21.79,0,0,0,32.53,0,21.79,21.79,0,0,0,32.53,0,21.82,21.82,0,0,0,16.26,7.29,23,23,0,0,0,3-.19C217.48,118.38,224.05,102,216.64,90.17Zm-16,48.53a27.84,27.84,0,0,1-6.5-.84v10.81H109.53V137.86a28.8,28.8,0,0,1-6.5.84,30.74,30.74,0,0,1-4-.26,28.38,28.38,0,0,1-3.62-.8v32.18a7.05,7.05,0,0,0,7,7.06h98.74a7.05,7.05,0,0,0,7-7.06V137.64a23.51,23.51,0,0,1-3.61.8,31.92,31.92,0,0,1-4,.26Z"/></svg>