<svg id="Layer_1" data-name="Layer 1" xmlns="http://www.w3.org/2000/svg" viewBox="0 0 300 300"><defs><style>.cls-1{fill:#465266;}.cls-2{fill:#ff661a;}</style></defs><title>icon</title><path class="cls-1" d="M117,300h0a62.18,62.18,0,0,1-44-17.9L38.67,248.17a5.87,5.87,0,0,1-.05-8.29l49.52-50.1a5.85,5.85,0,0,1,8.28-.05l11.23,11.07c7,6.9,16.42,10.54,27.32,10.54,15.15,0,30.79-7,42.91-19.29l7.17-7.28c21.55-21.81,25.1-53.35,7.92-70.32l-11.23-11.1a5.85,5.85,0,0,1-.05-8.28l55.09-55.73a5.85,5.85,0,0,1,8.28-.05l34.33,33.92c16.08,15.88,22.12,38.87,16.16,61.49-4.92,26.82-29.1,65.08-63,99.41-37.92,38.37-80,64-107.36,65.36A65.25,65.25,0,0,1,117,300Zm-66-56,30.17,29.8A50.52,50.52,0,0,0,117,288.26h0a54.64,54.64,0,0,0,6.87-.44l.49,0c24.17-1.09,64.28-26,99.8-61.9,32.35-32.75,55.31-68.67,59.92-93.74,5-18.94.1-37.69-13-50.6L241,51.74,194.14,99.13l7.07,7C223,127.63,219.47,166.6,193.39,193l-7.17,7.29c-14.32,14.48-33,22.78-51.25,22.78-13.84,0-26.47-4.94-35.56-13.92l-7-7Z"/><path class="cls-2" d="M78.38,61.14a22.62,22.62,0,0,1,9.63,2,23.71,23.71,0,0,1,7.34,5.2A24.24,24.24,0,0,1,100,75.78a22.85,22.85,0,0,1,1.64,8.43,23.79,23.79,0,0,1-3.42,12.64A26.6,26.6,0,0,1,88,106.2Q78,111.75,73.87,116.73t-4.15,8.8h33.47V135h-49a46.47,46.47,0,0,1,.82-8.52,27,27,0,0,1,3.64-9.08,41.32,41.32,0,0,1,8-9.39,72.34,72.34,0,0,1,14-9.48,22.71,22.71,0,0,0,7.12-6.71,13.58,13.58,0,0,0,2.28-7.34,14,14,0,0,0-3.29-9A13.12,13.12,0,0,0,83,72.68a10.36,10.36,0,0,0-4.61-1.05,10.51,10.51,0,0,0-4.51,1,11,11,0,0,0-3.6,2.69,12.4,12.4,0,0,0-2.42,4.1,15.05,15.05,0,0,0-.87,5.2H54.67a21.33,21.33,0,0,1,1.87-8.71A25.61,25.61,0,0,1,69.17,63.1,21.85,21.85,0,0,1,78.38,61.14Z"/><path class="cls-2" d="M111.21,109.48,145.87,61.6h8.21v47.88h9.85v9.85h-9.85V135H142V119.33H111.21Zm30.83,0V84.86l-17.15,24.62Z"/><path class="cls-2" d="M57.4,198.49A105.64,105.64,0,1,1,199.39,53l-10.15,5.86A93.92,93.92,0,1,0,63,188.19Z"/></svg>