<svg id="Layer_1" data-name="Layer 1" xmlns="http://www.w3.org/2000/svg" viewBox="0 0 300 300"><defs><style>.cls-1{fill:#ff661a;}.cls-2{fill:none;}.cls-3{fill:#465266;}</style></defs><path class="cls-1" d="M172.1,187.4l-2.82-.74c-2.29-.6-4.19-1-6-1.36l-1.87-.33L154,201.24h-9.32L137.19,185l-1.88.34c-1.84.34-3.8.78-6,1.37l-2.82.75,9.19,20-8.89,82.15,2.33.35c2,.29,4,.54,5.88.75l2.44.25L146,212h6.58l8.56,79.13,2.41-.23c1.73-.16,3.6-.39,5.89-.7l2.36-.33-8.91-82.35Z"/><path class="cls-2" d="M123.34,124.54a.63.63,0,1,0,.63-.62A.63.63,0,0,0,123.34,124.54Z"/><path class="cls-2" d="M174,124.54a.63.63,0,1,0,.62-.62A.63.63,0,0,0,174,124.54Z"/><path class="cls-2" d="M149.29,158.45c4,0,6.62-3.13,8.66-5.68a.72.72,0,0,0-.57-1.17h-16.2a.72.72,0,0,0-.58,1.16C142.53,155.31,144.78,158.45,149.29,158.45Z"/><path class="cls-2" d="M173.17,125.08A2.87,2.87,0,1,0,176,128,2.88,2.88,0,0,0,173.17,125.08Z"/><path class="cls-2" d="M194.13,103.48a45.44,45.44,0,0,0-89.86,1.57c12.34-1.45,41.43-6.17,56.39-19.4l.06-.05a5.37,5.37,0,0,1,7.92.75C168.75,86.5,180.14,101.32,194.13,103.48Z"/><path class="cls-2" d="M125.42,130.81a2.87,2.87,0,1,0-2.87-2.86A2.87,2.87,0,0,0,125.42,130.81Z"/><path class="cls-2" d="M286.63,150c0-75.34-61.29-136.63-136.63-136.63S13.37,74.66,13.37,150a137.28,137.28,0,0,0,52.1,107.24,84.39,84.39,0,0,1,58.1-74.93,56.39,56.39,0,0,1-30.48-49.88V111a56.16,56.16,0,0,1,112.25-3,3.73,3.73,0,0,1,.08.41,3.06,3.06,0,0,1,0,.77l0,.5c0,.43.06.85.06,1.29v21.41a56.44,56.44,0,0,1-30.41,49.85,84,84,0,0,1,58.18,75.93A137.06,137.06,0,0,0,286.63,150Z"/><path class="cls-2" d="M135.53,285.86a138.82,138.82,0,0,0,14.47.77c4.23,0,8.63-.21,13.09-.64h0c1.65-.15,3.46-.37,5.68-.68a134.91,134.91,0,0,0,53.85-19.67v-3.4A73.19,73.19,0,0,0,168,191.41c-2.16-.57-3.94-1-5.62-1.27a74.17,74.17,0,0,0-13.12-1.22,71.83,71.83,0,0,0-13.1,1.25c-1.71.31-3.54.73-5.61,1.29A74,74,0,0,0,76,263v1.74a134.93,134.93,0,0,0,53.89,20.4C131.78,285.42,133.69,285.67,135.53,285.86Z"/><path class="cls-2" d="M149.29,177.89a45.51,45.51,0,0,0,45.46-45.46V114.38C180.6,113.19,169.16,103,163.62,97c-18.64,13.38-48.07,17.7-59.79,18.93v16.5A45.51,45.51,0,0,0,149.29,177.89Zm23.87-59.82a9.88,9.88,0,1,1-9.87,9.87A9.89,9.89,0,0,1,173.16,118.07Zm-12,26.62a4.41,4.41,0,0,1,4.39,4.41,16.28,16.28,0,0,1-32.56,0,4.41,4.41,0,0,1,4.39-4.41Zm-35.76-26.62a9.88,9.88,0,1,1-9.88,9.87A9.88,9.88,0,0,1,125.42,118.07Z"/><path class="cls-3" d="M173.16,137.82a9.88,9.88,0,1,0-9.87-9.88A9.89,9.89,0,0,0,173.16,137.82Zm0-7A2.87,2.87,0,1,1,176,128,2.87,2.87,0,0,1,173.17,130.81Z"/><path class="cls-3" d="M125.42,137.82a9.88,9.88,0,1,0-9.88-9.88A9.89,9.89,0,0,0,125.42,137.82ZM122.55,128a2.87,2.87,0,1,1,2.87,2.86A2.88,2.88,0,0,1,122.55,128Z"/><path class="cls-3" d="M133,149.1a16.28,16.28,0,0,0,32.56,0,4.41,4.41,0,0,0-4.39-4.41H137.4A4.41,4.41,0,0,0,133,149.1Zm8.17,2.5h16.2a.72.72,0,0,1,.57,1.17c-2,2.55-4.63,5.68-8.66,5.68-4.51,0-6.76-3.14-8.69-5.69A.72.72,0,0,1,141.18,151.6Z"/><path class="cls-3" d="M150,.78C67.72.78.78,67.72.78,150S67.72,299.22,150,299.22,299.23,232.28,299.23,150,232.28.78,150,.78Zm15.08,82.45a5.48,5.48,0,0,0-4.2,1.4l0,.05c-15.19,13.43-44.72,18.22-57.25,19.69a46.12,46.12,0,0,1,91.21-1.59c-14.2-2.2-25.75-17.24-25.87-17.39A5.43,5.43,0,0,0,165.08,83.23Zm-62,32.18c11.9-1.25,41.78-5.63,60.7-19.22,5.62,6.06,17.23,16.45,31.6,17.65v18.32a46.15,46.15,0,0,1-92.3,0ZM74.84,264.71a75.13,75.13,0,0,1,55.45-72.63c2.1-.56,4-1,5.69-1.3a73.18,73.18,0,0,1,13.3-1.28,75.58,75.58,0,0,1,13.32,1.24c1.7.31,3.51.72,5.7,1.29a74.31,74.31,0,0,1,55.42,71.91v3.45a136.89,136.89,0,0,1-54.67,20c-2.25.31-4.08.53-5.76.69h0c-4.51.43-9,.65-13.28.65a140.3,140.3,0,0,1-14.69-.78c-1.87-.2-3.81-.45-5.76-.74a136.91,136.91,0,0,1-54.71-20.7Zm134.75-61.13a85,85,0,0,0-34.13-20.81,57.3,57.3,0,0,0,30.87-50.61V110.43c0-.44,0-.88-.06-1.31l0-.51a2.75,2.75,0,0,0-.06-1.19,57,57,0,0,0-113.95,3v21.73a57.25,57.25,0,0,0,30.94,50.64,85.67,85.67,0,0,0-59,76.06A139.37,139.37,0,0,1,11.3,150C11.3,73.52,73.52,11.3,150,11.3S288.7,73.52,288.7,150a139.15,139.15,0,0,1-54.18,109.85A84.7,84.7,0,0,0,209.59,203.58Z"/></svg>