<svg id="Layer_1" data-name="Layer 1" xmlns="http://www.w3.org/2000/svg" viewBox="0 0 300 300"><title>Untitled-1</title><path d="M146.41,66.48H38.94a6.59,6.59,0,0,0-6.58,6.59V226.93a6.59,6.59,0,0,0,6.58,6.59H146.41ZM51.21,182.92l-5.37-4.77,39.3-44.3,5.37,4.76Zm0-44.31-5.37-4.76,43-48.5,5.37,4.76Z" fill="none"/><path d="M261.06,66.48H153.59v167H261.06a6.59,6.59,0,0,0,6.58-6.59V73.07A6.59,6.59,0,0,0,261.06,66.48ZM176.47,182.92l-5.38-4.77,43-48.5,5.37,4.77Zm0-44.31-5.38-4.76,43-48.5,5.37,4.76Zm49.92-12L221,121.87,244.77,95.1l5.37,4.77Z" fill="none"/><path d="M285,42.54H15a6.59,6.59,0,0,0-6.59,6.58V250.88A6.59,6.59,0,0,0,15,257.46H285a6.59,6.59,0,0,0,6.59-6.58V49.12A6.59,6.59,0,0,0,285,42.54ZM274.83,226.93a13.79,13.79,0,0,1-13.77,13.77H38.94a13.79,13.79,0,0,1-13.77-13.77V73.07A13.79,13.79,0,0,1,38.94,59.3H261.06a13.79,13.79,0,0,1,13.77,13.77Z" fill="none"/><path d="M285,35.35H15A13.78,13.78,0,0,0,1.23,49.12V250.88A13.78,13.78,0,0,0,15,264.65H285a13.78,13.78,0,0,0,13.77-13.77V49.12A13.78,13.78,0,0,0,285,35.35Zm6.59,215.53a6.59,6.59,0,0,1-6.59,6.58H15a6.59,6.59,0,0,1-6.59-6.58V49.12A6.59,6.59,0,0,1,15,42.54H285a6.59,6.59,0,0,1,6.59,6.58Z" fill="#465266"/><path d="M261.06,59.3H38.94A13.79,13.79,0,0,0,25.17,73.07V226.93A13.79,13.79,0,0,0,38.94,240.7H261.06a13.79,13.79,0,0,0,13.77-13.77V73.07A13.79,13.79,0,0,0,261.06,59.3ZM32.36,226.93V73.07a6.59,6.59,0,0,1,6.58-6.59H146.41v167H38.94A6.59,6.59,0,0,1,32.36,226.93Zm235.28,0a6.59,6.59,0,0,1-6.58,6.59H153.59v-167H261.06a6.59,6.59,0,0,1,6.58,6.59Z" fill="#ff661a"/><rect x="162.88" y="108.39" width="64.83" height="7.18" transform="translate(-18.07 183.77) rotate(-48.43)" fill="#465266"/><rect x="162.88" y="152.69" width="64.83" height="7.18" transform="translate(-51.22 198.67) rotate(-48.43)" fill="#465266"/><rect x="217.68" y="107.28" width="35.79" height="7.18" transform="translate(-3.69 213.52) rotate(-48.42)" fill="#465266"/><rect x="37.62" y="108.39" width="64.83" height="7.18" transform="translate(-60.21 90.06) rotate(-48.43)" fill="#465266"/><rect x="38.56" y="154.79" width="59.22" height="7.18" transform="translate(-95.55 104.28) rotate(-48.43)" fill="#465266"/></svg>